:SAMPLES-PER-SECOND 30
:FULLY-SPECIFIED
:DEGREES
322
root  0.595596 19.1734 -7.471 -123.62 4.73114 178.908
RightUpLeg  -39.6868 -9.42084 0.290036
RightLeg  95.1348 17.3198 -10.5555
RightFoot  -2.79821 -0.365057 4.04003
RightToes  -5.82073e-011 -3.18055e-015 -2.98177e-016
Spine  30.3108 0.507011 16.3343
Spine1  -12.4894 3.98497 8.60707
HEad  -20.8409 6.4854 11.6582
LeftShoulder1  -3.88251e-019 9.70628e-020 -3.87848e-018
LeftArm  -14.5647 -2.67851 -73.8765
LeftForeArm  12.5305 -3.23176 -5.95025
LeftHand  -9.73859 -11.1891 63.0523
RightShoulder  9.67181 11.5539 43.409
RightArm  12.6742 31.1207 48.0364
RightForeArm  15.4997 11.1037 0.985175
RightHand  -11.1899 9.93499 -72.8442
LeftUpLeg  -49.249 -3.60636 -9.12115
LeftLeg  103.743 -15.2414 6.57415
LeftFoot  -22.1989 -1.71359 -20.5382
LeftToes  -2.27483e-011 -5.53417e-011 9.36564e-012
323
root  0.422854 19.2094 -7.63695 -123.164 5.63121 -179.473
RightUpLeg  -46.0544 -9.09301 0.681505
RightLeg  103.154 18.393 -9.44548
RightFoot  -4.88505 -0.189863 2.71785
RightToes  -5.82073e-011 -3.18055e-015 -2.98177e-016
Spine  30.9451 1.00282 16.5412
Spine1  -12.9587 4.5854 9.19007
HEad  -21.7283 7.48049 10.9116
LeftShoulder1  -3.88251e-019 9.70628e-020 -3.87848e-018
LeftArm  -13.6395 -6.32314 -69.9326
LeftForeArm  11.8561 -4.25804 -5.33126
LeftHand  -9.13583 -10.9406 60.6001
RightShoulder  10.7639 12.1112 46.8579
RightArm  13.8378 33.2933 47.6734
RightForeArm  18.2906 9.962 2.33299
RightHand  -11.3469 10.0879 -73.07
LeftUpLeg  -48.7853 -2.15108 -9.59225
LeftLeg  102.64 -15.4289 7.66293
LeftFoot  -22.5701 -1.77835 -20.4828
LeftToes  -2.27483e-011 -5.53417e-011 9.36564e-012
324
root  0.294279 19.2054 -7.79629 -122.784 6.55757 -178.149
RightUpLeg  -52.9247 -8.56261 1.19511
RightLeg  110.999 19.0195 -7.85904
RightFoot  -7.66643 -0.0409392 1.22187
RightToes  -5.82073e-011 -3.18055e-015 -2.98177e-016
Spine  31.6622 1.30539 16.3459
Spine1  -13.1725 4.89951 9.64428
HEad  -22.6491 8.50941 10.4886
LeftShoulder1  -3.88251e-019 9.70628e-020 -3.87848e-018
LeftArm  -12.3577 -10.3104 -65.8026
LeftForeArm  10.1543 -5.50398 -4.93736
LeftHand  -8.55906 -10.6644 58.2502
RightShoulder  11.9453 12.8141 50.0398
RightArm  15.1168 35.1057 47.2666
RightForeArm  20.2118 9.24582 3.3691
RightHand  -11.49 10.2079 -73.3391
LeftUpLeg  -48.1057 -0.860292 -10.0078
LeftLeg  101.695 -15.4136 8.05794
LeftFoot  -23.7401 -2.04478 -21.0049
LeftToes  -2.27483e-011 -5.53417e-011 9.36564e-012
325
root  0.206764 19.192 -7.99211 -122.673 7.33624 -177.47
RightUpLeg  -59.7768 -8.08444 1.75653
RightLeg  117.863 19.4173 -6.70852
RightFoot  -10.8736 0.031588 0.115494
RightToes  -5.82073e-011 -3.18055e-015 -2.98177e-016
Spine  32.6039 1.2639 15.6304
Spine1  -13.5171 4.74142 10.2801
HEad  -23.2934 9.61208 10.4958
LeftShoulder1  -3.88251e-019 9.70628e-020 -3.87848e-018
LeftArm  -11.7155 -14.2696 -62.1723
LeftForeArm  6.38472 -6.04555 -4.46187
LeftHand  -8.04183 -10.1445 56.8825
RightShoulder  13.3424 13.7097 53.2844
RightArm  16.1211 36.5011 46.5509
RightForeArm  21.7826 8.83381 4.14539
RightHand  -11.6741 10.3406 -73.7531
LeftUpLeg  -47.1662 -0.153243 -10.5819
LeftLeg  100.696 -15.3436 8.31698
LeftFoot  -24.5861 -2.25279 -21.4664
LeftToes  -2.27483e-011 -5.53417e-011 9.36564e-012
326
root  0.170589 19.1548 -8.22596 -123.052 7.58675 -177.536
RightUpLeg  -65.7146 -7.66757 2.56864
RightLeg  123.245 19.8904 -6.2375
RightFoot  -13.7212 0.0331815 -0.769211
RightToes  -5.82073e-011 -3.18055e-015 -2.98177e-016
Spine  33.7414 0.975588 14.1085
Spine1  -13.7104 4.06946 11.9562
HEad  -23.4687 10.8853 10.3676
LeftShoulder1  -3.88251e-019 9.70628e-020 -3.87848e-018
LeftArm  -12.3654 -18.0617 -59.2516
LeftForeArm  1.59831 -4.93559 -3.71702
LeftHand  -7.41727 -9.39359 55.4456
RightShoulder  14.9664 14.7027 56.7501
RightArm  16.9887 37.8106 46.0211
RightForeArm  23.8448 8.30957 4.78295
RightHand  -11.8881 10.4969 -74.2181
LeftUpLeg  -45.8548 -0.217417 -11.07
LeftLeg  99.6837 -15.3188 8.8038
LeftFoot  -24.6057 -2.26154 -21.5101
LeftToes  -2.27483e-011 -5.53417e-011 9.36564e-012
327
root  0.179788 19.0875 -8.51041 -123.749 7.02092 -177.958
RightUpLeg  -70.3478 -7.27237 4.00069
RightLeg  126.897 20.6225 -6.451
RightFoot  -16.2093 0.00363017 -2.08316
RightToes  -5.82073e-011 -3.18055e-015 -2.98177e-016
Spine  34.887 0.569631 12.3349
Spine1  -13.547 3.11459 14.7573
HEad  -23.1263 12.312 9.73439
LeftShoulder1  -3.88251e-019 9.70628e-020 -3.87848e-018
LeftArm  -13.2974 -21.6757 -57.1365
LeftForeArm  -2.67353 -2.63261 -2.99214
LeftHand  -6.27045 -8.33803 51.1478
RightShoulder  16.6642 15.6737 60.1123
RightArm  17.9192 39.0911 45.745
RightForeArm  26.0545 7.91437 5.32674
RightHand  -11.9979 10.5846 -74.4257
LeftUpLeg  -44.1793 -0.802257 -10.9518
LeftLeg  98.7021 -15.2849 9.29669
LeftFoot  -24.611 -2.26835 -21.5643
LeftToes  -2.27483e-011 -5.53417e-011 9.36564e-012
328
root  0.19902 19.0171 -8.8618 -124.335 5.92703 -178.656
RightUpLeg  -74.5475 -7.17995 5.70585
RightLeg  128.822 21.3969 -6.95371
RightFoot  -17.7099 0.0150841 -0.844473
RightToes  -5.82073e-011 -3.18055e-015 -2.98177e-016
Spine  35.7958 -0.0435753 10.7096
Spine1  -13.1038 1.83961 17.8905
HEad  -22.7107 14.0223 9.07346
LeftShoulder1  -3.88251e-019 9.70628e-020 -3.87848e-018
LeftArm  -13.2772 -25.2151 -56.1665
LeftForeArm  -5.92879 -0.554277 -2.49405
LeftHand  -4.78008 -6.71239 45.2594
RightShoulder  18.4408 16.6341 63.3579
RightArm  18.8377 40.2213 45.3716
RightForeArm  27.6056 7.93026 5.72139
RightHand  -12.0589 10.6427 -74.5073
LeftUpLeg  -42.5008 -1.8439 -10.5331
LeftLeg  97.5959 -15.1967 9.70058
LeftFoot  -24.8185 -2.3359 -21.8197
LeftToes  -2.27483e-011 -5.53417e-011 9.36564e-012
329
root  0.214565 18.9342 -9.28359 -124.784 4.8597 -179.763
RightUpLeg  -78.2336 -7.41564 6.83321
RightLeg  128.722 22.5386 -8.28406
RightFoot  -14.3552 0.0537261 -1.72625
RightToes  -5.82073e-011 -3.18055e-015 -2.98177e-016
Spine  36.4503 -0.839882 8.75359
Spine1  -12.3342 0.153821 20.6861
HEad  -22.9139 15.9953 8.90363
LeftShoulder1  -3.88251e-019 9.70628e-020 -3.87848e-018
LeftArm  -12.8243 -28.6181 -56.4124
LeftForeArm  -8.51412 -0.303292 -1.73015
LeftHand  -3.83478 -4.79093 43.7488
RightShoulder  20.4705 17.5729 66.9993
RightArm  19.4511 41.2545 44.7889
RightForeArm  28.8748 7.89604 5.96521
RightHand  -12.2896 10.8326 -74.9111
LeftUpLeg  -40.863 -3.21931 -10.4731
LeftLeg  96.2734 -15.0904 10.2792
LeftFoot  -24.6152 -2.31151 -21.9734
LeftToes  -2.27483e-011 -5.53417e-011 9.36564e-012
330
root  0.243788 18.8184 -9.80625 -125.124 3.7451 179.115
RightUpLeg  -80.2881 -7.59064 7.32862
RightLeg  127.287 23.8519 -10.2112
RightFoot  -6.02608 0.308554 -4.72211
RightToes  -5.82073e-011 -3.18055e-015 -2.98177e-016
Spine  36.79 -1.45716 6.67415
Spine1  -11.4271 -1.44564 23.2549
HEad  -23.5873 17.2807 8.78749
LeftShoulder1  -3.88251e-019 9.70628e-020 -3.87848e-018
LeftArm  -13.1446 -31.0948 -57.409
LeftForeArm  -10.9785 -0.17691 -0.936555
LeftHand  -3.90673 -3.69909 49.1664
RightShoulder  22.5058 18.4244 70.466
RightArm  19.2015 41.8211 43.326
RightForeArm  30.176 7.74161 5.83631
RightHand  -12.6135 11.1113 -75.4231
LeftUpLeg  -39.0988 -4.56744 -10.406
LeftLeg  94.6128 -14.9718 11.3176
LeftFoot  -24.0327 -2.14261 -21.4174
LeftToes  -2.27483e-011 -5.53417e-011 9.36564e-012
331
root  0.315069 18.6657 -10.4053 -124.878 2.28706 178.374
RightUpLeg  -80.6217 -7.46108 7.61668
RightLeg  125.871 24.4389 -11.3929
RightFoot  1.9705 0.490958 -3.98377
RightToes  -5.82073e-011 -3.18055e-015 -2.98177e-016
Spine  36.2789 -1.75814 5.58816
Spine1  -10.6428 -2.40008 25.1227
HEad  -23.9318 16.9224 8.20216
LeftShoulder1  -3.88251e-019 9.70628e-020 -3.87848e-018
LeftArm  -12.8238 -31.8504 -58.4449
LeftForeArm  -14.1999 -0.23256 -1.15184
LeftHand  -4.7116 -3.891 56.8686
RightShoulder  24.749 19.6375 74.3042
RightArm  18.4385 43.1808 39.7962
RightForeArm  30.5395 7.85795 5.07862
RightHand  -12.7225 11.234 -75.4929
LeftUpLeg  -37.691 -5.66931 -9.71207
LeftLeg  92.5762 -14.7862 12.8313
LeftFoot  -23.5938 -1.81679 -18.9146
LeftToes  -2.27483e-011 -5.53417e-011 9.36564e-012
332
root  0.431902 18.598 -11.0527 -123.982 0.384476 178.401
RightUpLeg  -79.615 -6.84228 8.46508
RightLeg  124.523 24.2452 -11.651
RightFoot  4.79685 -0.267559 1.65033
RightToes  -5.82073e-011 -3.18055e-015 -2.98177e-016
Spine  34.5487 -1.60016 6.33584
Spine1  -8.78292 -2.56386 25.2101
HEad  -24.3511 14.9562 7.42312
LeftShoulder1  -3.88251e-019 9.70628e-020 -3.87848e-018
LeftArm  -9.26515 -31.9757 -59.8597
LeftForeArm  -18.0563 -0.622121 -3.03083
LeftHand  -5.57515 -4.67824 61.0142
RightShoulder  20.9321 18.18 58.962
RightArm  8.15241 25.9736 39.1746
RightForeArm  29.6761 11.8824 -0.108618
RightHand  -12.5077 11.0067 -75.3017
LeftUpLeg  -36.9462 -6.17025 -7.92765
LeftLeg  90.3094 -14.4335 14.1413
LeftFoot  -24.0353 -1.76696 -17.5931
LeftToes  -2.27483e-011 -5.53417e-011 9.36564e-012
333
root  0.548862 18.6562 -11.7442 -122.63 -1.28712 179.502
RightUpLeg  -78.0784 -5.49142 9.96641
RightLeg  122.795 23.315 -11.0724
RightFoot  3.85858 -0.96266 6.22978
RightToes  -5.82073e-011 -3.18055e-015 -2.98177e-016
Spine  31.4763 -0.336467 8.40808
Spine1  -4.18216 -1.73961 22.4085
HEad  -26.4444 11.6299 7.19522
LeftShoulder1  -3.88251e-019 9.70628e-020 -3.87848e-018
LeftArm  -2.63487 -33.6255 -63.7478
LeftForeArm  -21.063 -0.923682 -4.66579
LeftHand  -6.10059 -5.34318 62.1309
RightShoulder  -0.714827 6.62895 -3.36927
RightArm  -36.1227 -2.49829 77.7146
RightForeArm  26.4676 23.764 -14.6355
RightHand  -12.0702 10.4388 -75.267
LeftUpLeg  -36.8191 -5.41641 -5.59838
LeftLeg  87.7898 -13.8956 15.2686
LeftFoot  -24.5366 -1.99448 -19.0621
LeftToes  -2.27483e-011 -5.53417e-011 9.36564e-012
334
root  0.669635 18.7518 -12.5086 -121.913 -1.87286 -177.657
RightUpLeg  -75.5622 -3.29082 12.1205
RightLeg  120.416 22.096 -10.207
RightFoot  3.51261 -0.792634 5.24301
RightToes  -5.82073e-011 -3.18055e-015 -2.98177e-016
Spine  31.4803 0.558024 11.5547
Spine1  -4.04967 0.633586 18.2685
HEad  -27.06 8.71442 6.94232
LeftShoulder1  -3.88251e-019 9.70628e-020 -3.87848e-018
LeftArm  -0.154277 -33.3124 -66.8076
LeftForeArm  -19.2071 -1.47295 -5.95568
LeftHand  -6.72805 -5.9657 64.1028
RightShoulder  1.65526 8.03776 5.26591
RightArm  -28.7915 -4.91742 69.3739
RightForeArm  24.2575 22.5628 -13.2754
RightHand  -12.078 10.3139 -75.7423
LeftUpLeg  -35.7532 -2.62518 -3.29567
LeftLeg  84.7166 -13.1308 17.0135
LeftFoot  -23.0828 -1.65989 -18.1197
LeftToes  -2.27483e-011 -5.53417e-011 9.36564e-012
335
root  0.842734 18.6952 -13.3621 -121.218 -1.14728 -174.073
RightUpLeg  -72.9674 -0.794196 14.0062
RightLeg  117.971 21.3832 -9.95419
RightFoot  3.97747 -0.646736 4.11721
RightToes  -5.82073e-011 -3.18055e-015 -2.98177e-016
Spine  31.3055 2.0396 12.4611
Spine1  -3.49236 2.8953 15.3728
HEad  -27.8159 6.71104 5.57434
LeftShoulder1  -3.88251e-019 9.70628e-020 -3.87848e-018
LeftArm  -0.8732 -32.1435 -68.3207
LeftForeArm  -15.7601 -3.40016 -6.0144
LeftHand  -7.58047 -6.65304 67.1747
RightShoulder  3.48468 8.69396 16.2753
RightArm  -10.7493 -0.78152 59.9509
RightForeArm  14.7488 19.5656 -11.851
RightHand  -11.741 10.2657 -74.3239
LeftUpLeg  -34.0892 1.71422 -1.51736
LeftLeg  82.0692 -12.372 17.2365
LeftFoot  -21.3097 -1.26728 -16.7197
LeftToes  -2.27483e-011 -5.53417e-011 9.36564e-012
336
root  1.11901 18.4693 -14.1841 -120.006 0.523468 -171.683
RightUpLeg  -71.163 1.02288 14.5751
RightLeg  116.305 21.0401 -9.97097
RightFoot  3.97121 -0.611334 3.88641
RightToes  -5.82073e-011 -3.18055e-015 -2.98177e-016
Spine  30.1413 3.51616 10.4468
Spine1  -3.28325 4.14932 13.8333
HEad  -27.8248 5.59456 3.69308
LeftShoulder1  -3.88251e-019 9.70628e-020 -3.87848e-018
LeftArm  -2.16264 -29.862 -68.0924
LeftForeArm  -12.353 -5.67297 -6.10293
LeftHand  -8.29555 -7.30202 69.092
RightShoulder  4.99813 9.37221 24.3046
RightArm  3.18682 0.868016 53.161
RightForeArm  7.37198 20.6548 -11.2892
RightHand  -11.1866 10.28 -71.6162
LeftUpLeg  -33.2384 5.79694 -0.938838
LeftLeg  80.974 -12.1655 15.3845
LeftFoot  -17.8257 -0.674497 -14.8327
LeftToes  -2.27483e-011 -5.53417e-011 9.36564e-012
